<?xml version="1.0" standalone="no"?>
<!DOCTYPE svg PUBLIC "-//W3C//DTD SVG 20010904//EN"
 "http://www.w3.org/TR/2001/REC-SVG-20010904/DTD/svg10.dtd">
<svg version="1.0" xmlns="http://www.w3.org/2000/svg"
 width="1280.000000pt" height="1116.000000pt" viewBox="0 0 1280.000000 1116.000000"
 preserveAspectRatio="xMidYMid meet">
<metadata>
Created by potrace 1.15, written by Peter Selinger 2001-2017
</metadata>
<g transform="translate(0.000000,1116.000000) scale(0.100000,-0.100000)"
fill="#000000" stroke="none">
<path d="M5495 11153 c-236 -37 -850 -294 -1176 -491 -206 -125 -283 -158
-429 -182 -36 -6 -302 -15 -595 -20 -554 -9 -681 -18 -1153 -75 -1034 -125
-975 -120 -1317 -120 -302 1 -292 0 -662 60 -50 9 -115 -11 -142 -41 -20 -24
-23 -35 -18 -81 7 -70 45 -136 131 -229 177 -193 431 -323 760 -389 260 -52
562 -78 1166 -100 965 -35 1111 -43 1300 -71 118 -18 191 -42 226 -75 19 -18
24 -33 24 -72 0 -65 -24 -103 -77 -123 -52 -20 -99 -13 -373 56 -401 101 -566
124 -900 124 -259 1 -384 -11 -500 -46 -127 -39 -170 -85 -196 -207 -18 -88
-21 -379 -4 -491 63 -430 268 -820 812 -1542 65 -87 139 -189 164 -229 294
-454 298 -1257 9 -1867 -110 -231 -220 -375 -530 -692 -121 -124 -248 -263
-283 -308 -105 -140 -160 -277 -191 -477 -10 -62 -41 -439 -72 -865 -22 -305
32 -555 140 -653 50 -45 107 -62 281 -82 209 -24 284 -52 435 -161 255 -185
360 -243 470 -263 33 -6 135 -15 227 -20 113 -7 217 -20 320 -41 312 -63 391
-70 516 -44 98 20 199 67 314 145 149 101 176 107 277 59 123 -59 251 -167
314 -267 39 -61 64 -147 72 -243 9 -117 28 -180 74 -237 109 -139 316 -209
684 -233 444 -29 487 -35 606 -90 106 -50 198 -132 401 -358 78 -87 116 -120
126 -109 10 10 -19 63 -86 157 -94 133 -145 229 -181 344 -16 52 -41 109 -55
126 -52 61 -64 63 -459 71 -427 9 -539 23 -595 79 -17 17 -20 33 -20 110 0 95
-11 135 -80 285 -45 97 -62 159 -62 225 0 153 79 259 233 310 54 18 100 23
294 31 244 9 329 19 437 50 343 100 670 426 889 887 142 298 242 598 403 1202
86 323 128 506 124 544 l-3 31 -29 -30 c-62 -66 -144 -259 -283 -675 -177
-526 -298 -760 -511 -982 -120 -125 -201 -186 -327 -248 -172 -85 -354 -118
-545 -99 -111 12 -172 26 -327 79 -222 76 -278 75 -353 -6 -48 -52 -77 -111
-157 -319 -99 -255 -170 -358 -289 -416 -56 -28 -78 -33 -163 -37 -83 -4 -118
0 -221 23 -136 31 -184 31 -440 0 -213 -26 -320 -15 -730 75 -279 61 -349 73
-625 105 -495 59 -679 112 -801 230 -99 97 -124 179 -131 430 -9 323 62 965
108 965 14 0 28 -42 51 -150 26 -123 20 -306 -15 -500 -35 -189 -41 -254 -28
-279 7 -12 16 -21 22 -21 20 0 113 97 161 168 61 91 248 445 258 490 13 52 -5
92 -75 171 -50 58 -62 77 -54 87 14 18 53 9 101 -22 38 -24 66 -74 129 -228
17 -43 42 -90 54 -104 21 -24 25 -25 46 -14 13 8 48 45 78 83 110 140 222 193
631 294 334 82 546 104 655 67 48 -16 50 -19 53 -57 l2 -40 -21 25 c-70 82
-114 80 -255 -11 -114 -74 -179 -111 -489 -279 -226 -122 -288 -163 -346 -228
-67 -74 -84 -132 -84 -282 0 -132 11 -181 61 -281 67 -134 243 -206 442 -180
106 13 174 35 279 90 351 184 559 522 580 941 13 280 -53 417 -228 472 -61 18
-96 22 -199 22 -146 -1 -227 -15 -500 -87 -182 -48 -202 -51 -310 -50 -78 0
-147 7 -215 22 -59 13 -185 27 -306 36 -221 15 -274 27 -309 73 -24 30 -26 83
-5 143 25 70 97 178 290 434 284 375 376 517 503 771 208 415 332 844 332
1148 0 255 -68 451 -280 811 -45 76 -95 168 -112 203 -26 56 -32 62 -51 55
-12 -4 -47 -8 -77 -8 -72 0 -125 33 -242 152 -218 220 -410 518 -511 793 -75
202 -118 494 -97 648 32 241 170 311 585 299 243 -7 489 -43 745 -107 203 -51
311 -99 369 -165 50 -57 42 -144 -21 -225 -61 -78 -117 -78 -438 -5 -442 102
-670 128 -797 90 -62 -18 -119 -76 -129 -131 -28 -152 118 -395 466 -773 113
-123 176 -171 225 -171 92 0 238 166 577 655 304 440 392 606 463 882 29 112
44 301 26 346 -13 32 -29 34 -73 7 -18 -11 -40 -20 -49 -20 -9 0 -49 33 -90
73 -216 214 -459 233 -1564 127 -110 -10 -263 -25 -340 -32 -219 -20 -685 -17
-820 6 -303 50 -515 159 -638 328 -55 76 -73 142 -42 154 10 4 81 -5 159 -19
259 -49 309 -52 851 -51 465 0 554 3 1000 32 777 52 1073 57 1255 22 81 -15
192 -73 226 -117 35 -46 67 -132 89 -243 19 -95 31 -124 47 -114 6 4 40 68 75
143 84 177 157 286 257 389 308 318 925 598 1216 553 95 -15 182 -49 330 -130
160 -88 226 -116 330 -137 162 -32 398 -7 605 66 147 52 316 64 463 34 122
-24 304 -89 451 -159 256 -124 415 -251 539 -432 76 -112 95 -127 131 -109 14
8 59 24 99 36 84 26 133 23 213 -11 27 -12 52 -19 55 -16 3 3 -4 36 -16 74
-30 93 -39 257 -16 301 33 64 84 67 234 16 219 -75 641 -277 802 -385 184
-123 212 -215 105 -351 -81 -104 -220 -176 -356 -185 -158 -11 -288 57 -488
258 -65 65 -125 119 -133 119 -23 0 -34 -19 -54 -90 -51 -188 -106 -231 -379
-295 -60 -14 -175 -46 -255 -71 -172 -54 -246 -61 -300 -27 -76 47 -101 145
-76 301 20 129 21 172 2 172 -37 0 -117 -141 -136 -239 -28 -146 8 -340 81
-443 53 -74 174 -86 452 -43 320 48 405 56 476 44 53 -10 73 -19 98 -44 61
-61 38 -132 -97 -300 -45 -55 -88 -112 -96 -127 -30 -56 0 -42 371 180 292
175 477 268 610 308 82 25 104 28 255 28 130 0 190 -5 281 -22 381 -73 811
-215 960 -317 210 -143 190 -360 -70 -747 -187 -278 -467 -590 -696 -773 -226
-181 -467 -321 -639 -370 -104 -29 -242 -34 -322 -10 -186 55 -102 174 426
603 730 595 900 760 917 890 8 60 -16 95 -89 131 -119 59 -364 91 -689 91
-452 0 -679 -64 -777 -218 -60 -94 -72 -161 -117 -632 -26 -269 -65 -409 -161
-569 -59 -99 -130 -187 -321 -398 -87 -95 -163 -184 -171 -199 -14 -26 -13
-26 18 -19 17 4 75 25 128 46 228 93 375 106 658 56 362 -64 587 -17 894 188
154 102 275 210 640 570 190 187 383 369 429 403 192 144 352 194 626 193 255
0 424 -32 778 -147 251 -82 342 -104 420 -103 117 1 108 23 -27 64 -49 14
-166 59 -260 100 -335 142 -669 228 -1051 270 -238 26 -245 31 -219 146 21 93
15 179 -16 244 -56 117 -264 277 -530 409 -282 140 -577 217 -893 233 -65 3
-116 10 -115 14 2 4 58 44 125 89 205 135 323 274 331 390 4 53 2 59 -29 94
-40 47 -118 86 -329 166 -91 34 -264 110 -385 168 -513 244 -563 263 -705 270
-199 9 -270 -48 -285 -230 -7 -96 -25 -132 -69 -140 -37 -7 -77 14 -152 82
-202 183 -740 503 -1120 665 -278 119 -465 162 -879 200 -38 4 -137 20 -220
37 -144 29 -318 43 -390 31z"/>
<path d="M6528 7100 c-197 -23 -405 -101 -580 -217 -126 -83 -144 -130 -87
-232 86 -153 255 -328 374 -387 204 -100 359 -59 650 175 187 150 266 192 430
226 66 14 134 31 150 37 44 17 85 58 85 86 0 108 -423 278 -775 312 -113 11
-151 11 -247 0z"/>
<path d="M9670 6236 c-27 -71 -48 -299 -85 -911 -49 -812 -82 -1000 -237
-1365 -197 -461 -713 -1239 -1144 -1724 -107 -120 -119 -139 -54 -86 100 81
476 463 580 589 333 404 587 833 780 1316 173 436 253 832 267 1325 8 293 -21
681 -63 828 -16 57 -29 65 -44 28z"/>
</g>
</svg>
